<!--?xml version="1.0" standalone="no"?-->

<svg version="1.0" xmlns="http://www.w3.org/2000/svg" width="25pt" height="25pt" viewBox="0 0 300.000000 300.000000" preserveAspectRatio="xMidYMid meet">
<g transform="translate(0.000000,300.000000) scale(0.100000,-0.100000)" fill="#10A87C" stroke="none">
<path class="node" id="node1" d="M1295 2950 c-38 -6 -80 -14 -93 -20 -13 -5 -32 -10 -43 -10 -37 0
-201 -61 -314 -116 -60 -30 -146 -81 -189 -114 -44 -33 -82 -60 -86 -60 -13 0
-181 -178 -227 -240 -97 -132 -192 -307 -218 -400 -3 -14 -10 -34 -16 -45 -8
-19 -27 -95 -51 -210 -13 -66 -13 -406 0 -470 28 -129 43 -192 51 -210 6 -11
13 -31 16 -45 12 -45 86 -202 126 -270 73 -122 296 -369 373 -412 13 -7 54
-34 92 -59 68 -46 236 -130 284 -143 14 -4 34 -11 45 -16 11 -5 65 -21 120
-35 78 -20 136 -27 260 -32 156 -5 357 8 393 26 10 5 46 16 82 24 125 29 275
96 394 176 37 25 79 53 92 62 83 55 236 214 323 335 82 114 211 406 211 477 0
13 4 27 9 33 28 27 41 397 20 551 -18 135 -71 296 -145 446 -21 42 -56 97
-142 225 -36 52 -211 225 -262 258 -25 16 -47 32 -50 35 -15 18 -135 91 -195
119 -38 18 -88 41 -111 51 -22 11 -49 19 -60 19 -11 0 -24 4 -30 10 -5 5 -41
16 -79 25 -39 9 -88 20 -110 26 -57 13 -387 20 -470 9z m447 -847 l3 -368 225
-2 c124 -1 289 -2 368 -3 l142 0 0 -235 0 -235 -367 -2 -368 -3 -3 -362 -2
-363 -235 0 -235 0 -1 133 c0 72 -1 236 -2 362 l-2 230 -362 3 -363 2 0 238 0
237 352 -2 c244 -2 355 1 365 8 10 9 13 73 12 308 0 163 0 324 0 359 l1 62
235 0 235 0 2 -367z"></path>
</g>
<g transform="translate(0.000000,300.000000) scale(0.100000,-0.100000)" fill="#FFFFFF" stroke="none">

<path class="node" id="node3" d="M1269 2408 c0 -35 0 -196 0 -359 1 -235 -2 -299 -12 -308 -10 -7
-121 -10 -365 -8 l-352 2 0 -237 0 -238 363 -2 362 -3 2 -230 c1 -126 2 -290
2 -362 l1 -133 235 0 235 0 2 363 3 362 368 3 367 2 0 235 0 235 -142 0 c-79
1 -244 2 -368 3 l-225 2 -3 368 -2 367 -235 0 -235 0 -1 -62z"></path>
</g>
</svg>